#!OML:ASF H:\Terrain\Walking\May29\JustinRory\Justin.ASF
:FULLY-SPECIFIED
:DEGREES
260
root 13.2499 16.8115 8.07555 -325.762 -63.1512 -21.294
lowerback 19.6156 1.36034 1.00411
upperback 6.56925 1.73446 1.6487
thorax -3.90008 0.710915 0.802432
lowerneck -12.0745 -10.3677 -9.91226
upperneck 21.485 -15.0235 10.4891
head 10.4332 -6.73637 3.26632
rclavicle -7.95139e-016 -3.97569e-015
rhumerus -73.364 -53.742 35.4793
rradius 30.0894
rwrist -35.8427
rhand 264.686 23.1275
rfingers 7.12502
rthumb 63.7255 -254.823
lclavicle -7.95139e-016 -3.97569e-015
lhumerus -34.537 17.3519 62.0253
lradius 34.0309
lwrist -4.91864
lhand -6.82377 32.488
lfingers 7.12502
lthumb 19.0403 61.5761
rfemur -11.0141 -1.42876 9.61445
rtibia 33.4469
rfoot -4.63355 -32.4872
rtoes 11.8458
lfemur -52.2874 12.204 -10.7182
ltibia 56.2681
lfoot -15.4111 -5.5049
ltoes 4.50029
261
root 13.2248 16.866 8.19117 -326.653 -62.9781 -20.3006
lowerback 19.6107 1.12453 0.279559
upperback 6.71971 1.30398 2.0146
thorax -3.75832 0.490009 1.70112
lowerneck -12.7807 -9.96298 -11.6054
upperneck 22.0328 -14.0757 10.5169
head 10.7949 -6.39221 3.66878
rclavicle -6.75868e-015 -6.36111e-015
rhumerus -71.9301 -55.2694 34.6924
rradius 29.395
rwrist -35.5575
rhand 266.005 24.1457
rfingers 7.12502
rthumb 62.7102 -255.435
lclavicle -6.75868e-015 -6.36111e-015
lhumerus -35.3014 18.8348 62.2498
lradius 34.6347
lwrist -4.88771
lhand -6.82604 32.2128
lfingers 7.12502
lthumb 19.0381 61.3011
rfemur -12.1316 -1.6139 9.55662
rtibia 35.6959
rfoot -3.51963 -30.2353
rtoes 13.673
lfemur -51.7477 12.0885 -11.5404
ltibia 55.6575
lfoot -15.2045 -6.17944
ltoes 9.44714
262
root 13.2051 16.9179 8.3073 -327.592 -62.4265 -19.1919
lowerback 19.609 1.38534 0.479752
upperback 6.67509 1.67499 1.78214
thorax -3.80293 0.678362 1.25628
lowerneck -12.3478 -10.0017 -11.0685
upperneck 21.7952 -14.2542 10.4883
head 10.6008 -6.45378 3.56259
rclavicle -1.15295e-014 3.69739e-014
rhumerus -73.5707 -54.1876 35.3694
rradius 29.374
rwrist -36.271
rhand 267.166 25.3253
rfingers 7.12502
rthumb 61.8506 -255.647
lclavicle -1.15295e-014 3.69739e-014
lhumerus -34.7641 17.3506 62.6311
lradius 35.2314
lwrist -4.52055
lhand -6.22547 32.2326
lfingers 7.12502
lthumb 19.6156 61.263
rfemur -13.3067 -2.35335 9.71717
rtibia 38.1411
rfoot -3.05596 -26.6462
rtoes 11.2389
lfemur -51.3998 11.8971 -12.3568
ltibia 55.0009
lfoot -15.0611 -6.93254
ltoes 10.721
263
root 13.1729 16.984 8.41118 -328.529 -61.4973 -18.277
lowerback 19.697 1.12125 0.206209
upperback 6.81791 1.29408 2.1507
thorax -3.70206 0.483743 1.88979
lowerneck -12.5395 -9.60769 -11.8644
upperneck 21.7503 -13.5229 10.6278
head 10.6029 -6.16096 3.85214
rclavicle -2.78299e-014 1.78906e-014
rhumerus -73.3425 -54.7884 35.1263
rradius 29.1348
rwrist -36.1938
rhand 268.115 26.447
rfingers 7.12502
rthumb 61.1595 -255.616
lclavicle -2.78299e-014 1.78906e-014
lhumerus -35.2021 17.7634 62.9061
lradius 35.9433
lwrist -4.19418
lhand -5.9499 31.827
lfingers 7.12502
lthumb 19.8805 60.8301
rfemur -14.2306 -3.15478 10.3109
rtibia 40.6387
rfoot -3.55019 -22.7172
rtoes 7.81829
lfemur -50.8378 11.6979 -12.9207
ltibia 54.2768
lfoot -15.0414 -7.73233
ltoes 6.63547
264
root 13.1431 17.0464 8.49967 -330.062 -60.6062 -16.7798
lowerback 19.936 0.990674 -0.0941232
upperback 6.97602 1.07064 2.30873
thorax -3.65672 0.36695 2.27924
lowerneck -12.8025 -9.4737 -13.0176
upperneck 21.9715 -13.2125 11.195
head 10.8279 -6.04053 4.28623
rclavicle 9.14409e-015 2.70347e-014
rhumerus -74.3235 -55.1188 36.0323
rradius 28.9148
rwrist -36.1058
rhand 269.074 27.645
rfingers 7.12502
rthumb 60.4367 -255.44
lclavicle 9.14409e-015 2.70347e-014
lhumerus -35.2282 17.5929 63.2388
lradius 36.4524
lwrist -3.87773
lhand -5.73227 31.2046
lfingers 7.12502
lthumb 20.0897 60.186
rfemur -15.1759 -4.29114 10.7481
rtibia 43.0618
rfoot -3.86897 -18.4786
rtoes 2.56039
lfemur -50.208 11.5201 -13.8009
ltibia 53.4964
lfoot -14.6669 -8.94226
ltoes 4.99856
265
root 13.1203 17.0923 8.58825 -331.731 -59.861 -15.0658
lowerback 20.1153 1.05814 -0.204948
upperback 7.1073 1.12894 2.21618
thorax -3.61084 0.393633 2.22989
lowerneck -12.9329 -9.52048 -13.4357
upperneck 22.235 -13.2236 11.3134
head 10.9945 -6.05766 4.39376
rclavicle 3.49861e-014 1.78906e-014
rhumerus -75.9679 -54.7355 37.2386
rradius 28.9513
rwrist -36.7452
rhand 270.473 29.022
rfingers 7.12502
rthumb 59.4218 -255.5
lclavicle 3.49861e-014 1.78906e-014
lhumerus -34.8889 16.9032 63.5668
lradius 36.9689
lwrist -3.65238
lhand -5.3092 31.2994
lfingers 7.12502
lthumb 20.4963 60.2375
rfemur -16.166 -5.54382 10.9933
rtibia 45.3588
rfoot -5.01 -14.426
rtoes -0.860107
lfemur -49.6337 11.4931 -14.9083
ltibia 52.6671
lfoot -13.8238 -10.6356
ltoes 7.69692
266
root 13.0997 17.1431 8.67063 -332.658 -58.9873 -13.9657
lowerback 20.1506 1.02381 -0.271785
upperback 7.1583 1.07759 2.29738
thorax -3.57468 0.367504 2.36639
lowerneck -13.0889 -9.34316 -13.2179
upperneck 22.3899 -12.8571 10.7355
head 10.9675 -5.92314 4.20599
rclavicle -3.18055e-015 -2.78299e-015
rhumerus -77.1237 -54.5115 38.1259
rradius 28.9801
rwrist -37.4273
rhand 271.84 30.4383
rfingers 7.12502
rthumb 58.5397 -255.493
lclavicle -3.18055e-015 -2.78299e-015
lhumerus -34.8575 17.0855 63.6345
lradius 37.5012
lwrist -3.69434
lhand -5.19317 31.7075
lfingers 7.12502
lthumb 20.6078 60.6336
rfemur -17.3342 -6.42961 11.7154
rtibia 47.4989
rfoot -7.40243 -10.8665
rtoes -0.588132
lfemur -49.3101 11.6222 -15.7171
ltibia 51.8321
lfoot -12.952 -12.3299
ltoes 9.99906
267
root 13.0778 17.1991 8.74224 -333.756 -58.0443 -12.6344
lowerback 20.2409 0.961593 -0.446197
upperback 7.17655 0.971006 2.33384
thorax -3.60001 0.315419 2.52899
lowerneck -13.1174 -9.19048 -12.9751
upperneck 22.3344 -12.5289 10.1773
head 10.8468 -5.80834 4.01696
rclavicle -3.26007e-014 -5.36719e-015
rhumerus -78.6599 -54.2829 39.4211
rradius 29.0153
rwrist -38.0983
rhand 272.683 31.8771
rfingers 7.12502
rthumb 58.1369 -254.99
lclavicle -3.26007e-014 -5.36719e-015
lhumerus -34.8251 17.5812 63.5223
lradius 37.869
lwrist -3.86908
lhand -5.2135 31.698
lfingers 7.12502
lthumb 20.5883 60.6262
rfemur -18.5551 -7.2799 12.4896
rtibia 49.4067
rfoot -10.3413 -7.28832
rtoes -3.04188
lfemur -49.0384 11.8093 -16.683
ltibia 51.0085
lfoot -12.1899 -14.1009
ltoes 11.0077
268
root 13.0535 17.2494 8.80719 -335.08 -57.0708 -11.2936
lowerback 20.5496 0.856361 -0.589968
upperback 7.29082 0.805732 2.36069
thorax -3.62936 0.230965 2.67806
lowerneck -13.118 -9.09705 -13.0175
upperneck 22.2264 -12.26 9.7795
head 10.7456 -5.72804 3.92281
rclavicle 2.32578e-014 4.17448e-014
rhumerus -80.405 -54.3537 41.0648
rradius 29.0034
rwrist -38.7423
rhand 273.332 33.3407
rfingers 7.12502
rthumb 58.055 -254.401
lclavicle 2.32578e-014 4.17448e-014
lhumerus -34.8515 17.898 63.464
lradius 38.2854
lwrist -3.6598
lhand -5.21461 31.6885
lfingers 7.12502
lthumb 20.5872 60.6168
rfemur -19.4888 -8.18023 13.2872
rtibia 50.9956
rfoot -12.1505 -5.14139
rtoes -8.89007
lfemur -48.5478 12.0641 -17.5771
ltibia 50.2526
lfoot -10.6633 -16.3068
ltoes 13.2895
269
root 13.0332 17.3083 8.87807 -335.772 -56.1926 -10.7169
lowerback 20.7996 0.723946 -0.478639
upperback 7.48445 0.651782 2.49569
thorax -3.54049 0.14878 2.79555
lowerneck -13.3369 -8.91632 -13.0937
upperneck 22.2789 -11.8581 9.40753
head 10.7338 -5.58051 3.85923
rclavicle 9.93923e-016 8.15017e-015
rhumerus -81.4385 -54.5547 41.9709
rradius 29.0743
rwrist -39.88
rhand 274.077 34.8865
rfingers 7.12502
rthumb 58.1321 -253.951
lclavicle 9.93923e-016 8.15017e-015
lhumerus -35.0449 18.3158 63.3981
lradius 38.8007
lwrist -3.2289
lhand -5.31068 32.0653
lfingers 7.12502
lthumb 20.4949 61.0036
rfemur -20.3303 -8.80826 14.4308
rtibia 52.172
rfoot -13.9703 -2.81369
rtoes -11.9766
lfemur -48.0656 12.5233 -18.0253
ltibia 49.6161
lfoot -8.53744 -18.6946
ltoes 16.3179
270
root 13.0142 17.3745 8.9437 -336.246 -55.5463 -10.0196
lowerback 20.7791 0.689822 -0.643599
upperback 7.59733 0.577269 2.59768
thorax -3.40656 0.106548 3.01624
lowerneck -13.5495 -8.71714 -12.9702
upperneck 22.2255 -11.4441 8.94278
head 10.6623 -5.42183 3.73109
rclavicle 7.73272e-014 -2.14687e-014
rhumerus -81.764 -54.3181 41.8371
rradius 29.4626
rwrist -41.5399
rhand 274.282 36.6089
rfingers 7.12502
rthumb 58.5041 -252.716
lclavicle 7.73272e-014 -2.14687e-014
lhumerus -35.2141 18.7888 63.2938
lradius 39.2058
lwrist -2.90049
lhand -5.33791 32.4258
lfingers 7.12502
lthumb 20.4687 61.3669
rfemur -21.5033 -9.18985 15.4709
rtibia 52.9059
rfoot -15.8836 -0.547568
rtoes -14.0121
lfemur -48.0089 13.1099 -18.6411
ltibia 49.0991
lfoot -6.6055 -20.9756
ltoes 17.464
